<?xml version="1.0" encoding="UTF-8" standalone="no"?>
<svg width="46px" height="64px" viewBox="0 0 46 64" version="1.1" xmlns="http://www.w3.org/2000/svg" xmlns:xlink="http://www.w3.org/1999/xlink" xmlns:sketch="http://www.bohemiancoding.com/sketch/ns">
    <!-- Generator: Sketch 3.0.3 (7891) - http://www.bohemiancoding.com/sketch -->
    <title>Canvas</title>
    <desc>Created with Sketch.</desc>
    <defs></defs>
    <g id="Page-1" stroke="none" stroke-width="1" fill="none" fill-rule="evenodd" sketch:type="MSPage">
        <g id="Canvas" sketch:type="MSLayerGroup" transform="translate(1.000000, 1.000000)" stroke="#6B6C6E" stroke-width="2">
            <path d="M12.5,45 L7.8,62 L2.9,62 L7.6,45" id="Shape" sketch:type="MSShapeGroup"></path>
            <path d="M30.5,45 L35.2,62 L40.1,62 L35.4,45" id="Shape" sketch:type="MSShapeGroup"></path>
            <rect id="Rectangle-path" sketch:type="MSShapeGroup" x="20" y="45" width="4" height="11"></rect>
            <rect id="Rectangle-path" sketch:type="MSShapeGroup" x="19" y="0" width="4" height="9"></rect>
            <path d="M42,37 C43.1,37 44,37.9 44,39 L44,43 C44,44.1 43.1,45 42,45 L2,45 C0.9,45 0,44.1 0,43 L0,39 C0,37.9 0.9,37 2,37" id="Shape" sketch:type="MSShapeGroup"></path>
            <path d="M40.2,41 L4,41 C2.9,41 2,40.1 2,39 L2,11 C2,9.9 2.9,9 4,9 L40.2,9 C41.3,9 42,9.9 42,11 L42,39 C42,40.1 41.3,41 40.2,41 Z" id="Shape" sketch:type="MSShapeGroup"></path>
        </g>
    </g>
</svg>